PathFileType	4	(X/Y/Z)	pose_F01_0-94.trc
DataRate	CameraRate	NumFrames	NumMarkers	Units	OrigDataRate	OrigDataStartFrame	OrigNumFrames
30	30	17	21	m	30	56	94
Frame#	Time	CHip			RHip			RKnee			RAnkle			RBigToe			RSmallToe			RHeel			LHip			LKnee			LAnkle			LBigToe			LSmallToe			LHeel			Neck			Nose			RShoulder			RElbow			RWrist			LShoulder			LElbow			LWrist			
		X1	Y1	Z1	X2	Y2	Z2	X3	Y3	Z3	X4	Y4	Z4	X5	Y5	Z5	X6	Y6	Z6	X7	Y7	Z7	X8	Y8	Z8	X9	Y9	Z9	X10	Y10	Z10	X11	Y11	Z11	X12	Y12	Z12	X13	Y13	Z13	X14	Y14	Z14	X15	Y15	Z15	X16	Y16	Z16	X17	Y17	Z17	X18	Y18	Z18	X19	Y19	Z19	X20	Y20	Z20	X21	Y21	Z21	
56	1.8666666666666667	-0.2753988042904541	1.8826151997817258	-0.6481167321248729	-0.2923871443509783	1.8802623499203683	-0.5843406526019693																-0.26131688513018464	1.886771807441316	-0.7076196939089325																-0.27802628753298614	2.0462100815851407	-0.654088988196072	-0.261637929009071	2.1024669493864043	-0.6239529484574847	-0.30309819689758677	2.0418495522200804	-0.5662422533794883	-1.5482280784267026	1.8643545998051418	0.7562251825659146	-0.309164366756386	1.880757809736618	-0.498104335362939	-0.25180153889865314	2.053044560679264	-0.7479551120670376	-0.24569683307556672	1.970238889662404	-0.7697925872084529	-0.24072653416286663	1.887428252874789	-0.7681518463446881
57	1.9	-0.2776717409846826	1.884025022464806	-0.6461133768611191	-0.2945627448757843	1.8813378035970483	-0.5824142105928191																-0.2644721002434665	1.888521263020023	-0.7085711029317858																-0.27788988654065216	2.047577909627791	-0.6540068881433565	-0.2616140794316279	2.1038482753508485	-0.6243661461941715	-0.30009370939229235	2.0443446178983744	-0.5657380642075512	-1.548092905893036	1.8647007819943042	0.7558631053979684	-0.3119713942898647	1.8851278002070233	-0.49991057173706516	-0.25185105371622024	2.0531441356482545	-0.7479136701639374	-0.24802814925674938	1.972389449148105	-0.767702115682526	-0.2385672153913873	1.8879588213852587	-0.7703754478728947
58	1.9333333333333333	-0.2796250539800857	1.884518196506382	-0.644108741015686	-0.2956005254115684	1.881005360076677	-0.5853502145915728																-0.2636444971638257	1.8883531745678177	-0.7055604374906592																-0.28083933296777597	2.0490630337298468	-0.6551599767178292	-0.26160046887494914	2.1038055821268884	-0.6243338551057005	-0.3030272372795263	2.0445046864894807	-0.5666312035780201	-1.5480559407765047	1.8646974097516253	0.7557334625021619	-0.31204936930640825	1.8848260296938182	-0.49997983600678	-0.2530343686241644	2.054232360796419	-0.7428303302977541	-0.25013921265908556	1.9716240327996184	-0.765372717020575	-0.2384057135463236	1.8898426078672406	-0.7705288750024636
59	1.9666666666666666	-0.28055965094491103	1.889388469122635	-0.6475946968527552	-0.29545878107098283	1.8871537927822037	-0.5860170608579673																-0.2643571894728779	1.893516838365053	-0.7091305002635272																-0.28093823861105005	2.046474697051886	-0.6548972949805736	-0.26165525021035396	2.1026102850831756	-0.6245304410812421	-0.30307790426978753	2.0419197088950067	-0.5662862719606311	-1.5510253620590435	1.8662342064069242	0.759347860916725	-0.31233653375394327	1.8854189030156816	-0.500041942686852	-0.2540089694766074	2.0530936799874424	-0.7457921527904611	-0.25016914934422296	1.9714430435101913	-0.765464577595969	-0.23850072711190864	1.8877904242032237	-0.7704072338732652
60	2.0	-0.2829419589968921	1.8808264861680586	-0.6445949254503414	-0.2978888539510223	1.876928773922178	-0.5828800575455918																-0.2648709816245734	1.8841004282622438	-0.7081880266343273																-0.28105585921881604	2.0423414360173933	-0.6541061852934383	-0.25877685059172856	2.0999897103347753	-0.6233360365229016	-0.30322478763817073	2.0377156285283884	-0.5653586937956906	-1.5416298346809858	1.8617575370994097	0.7428355728447545	-0.31205545655764944	1.8847162398019959	-0.49995900529063814	-0.25202104777485085	2.046992033935604	-0.7470700399114188	-0.2492892019054834	1.9625417579224316	-0.7701112446637287	-0.2428094272027588	1.8854878297760984	-0.7709032397512195
61	2.033333333333333	-0.28283045410945445	1.875833766946692	-0.6440941015777571	-0.2976217929065414	1.8729431942374375	-0.5824292214923924																-0.2645618478768923	1.8799938155218068	-0.7078573236499076																-0.2812643752794542	2.0351525068192737	-0.6530807086211132	-0.25975846920306667	2.094208926371487	-0.6250199550646525	-0.30338529281469484	2.0303898488384813	-0.5642947699003104	-1.5442736395654921	1.8568036189866297	0.7506412722952976	-0.31240617848974744	1.8757246669431722	-0.4987460537378723	-0.25219470752283807	2.039753361710351	-0.7461053226120867	-0.2494151042697309	1.954563060756276	-0.7687874782615737	-0.24258275188568537	1.866112662841003	-0.7691567214936299
62	2.066666666666667	-0.28387395471739946	1.8650163330870526	-0.6544322129463995	-0.2990686576549012	1.8624442331422755	-0.5927195674456169																-0.2659612709693238	1.8681749711179667	-0.7097854265746736																-0.28175273315488264	2.0193777250149156	-0.6512004287523604	-0.2593799181889902	2.0813871710678815	-0.6209901009788753	-0.3019427791536979	2.016208357023719	-0.564481991293945	-0.31432776314412364	1.9327965893467818	-0.5418634949273159	-0.3126361529689337	1.8584413543663554	-0.49646370615300905	-0.2526001760948787	2.025172371474132	-0.7444695202960516	-1.2002263753058133	1.8436848123964884	0.16785132701103747	-0.24379980313000552	1.859604355587459	-0.7716258287072113
63	2.1	-0.28355271201003784	1.8493819363638648	-0.6411979459462774	-0.2983051777689912	1.8467294060428163	-0.5794361760696232																-0.267561841336991	1.8518195680361687	-0.7028704002681673																-0.27990316764207596	2.0068656927437396	-0.651222531454932	-0.26062495369673805	2.0691384069942758	-0.6221993309285069	-0.30108993977711546	2.002041083533267	-0.5589615885558434	-0.31165343136676643	1.9157751314887188	-0.538516623565817	-0.3112261984919565	1.8376775862078585	-0.4960796345098631	-0.2529247497332198	2.0117844342905276	-0.7427149969106038	-1.1963916895596538	1.8259423767016312	0.1624555151660023	-0.24420673229951692	1.8423915581583659	-0.7701643005262943
64	2.1333333333333333	-0.28411591811568704	1.8408700616162073	-0.643301975228371	-0.29831787106284	1.8463644360658367	-0.5803365180177467																-0.2677386812206669	1.8432387929931515	-0.7037366910560363																-0.2803368070983466	1.991757750795558	-0.6494081105047633	-0.259031012748963	2.052731725347861	-0.6216841004614678	-0.3015719598273155	1.9879159269258433	-0.5571871242612537	-0.3108431310856097	1.8995150531966796	-0.5414958379767297	-0.31041738672016755	1.82272517818566	-0.5082968856385401	-0.2541656752884764	1.9965152186666881	-0.7440669060062672	-1.1759096351855336	1.8130324246191658	0.13454218118844405	-0.24458160208199048	1.8327645403642416	-0.7690434628636857
65	2.1666666666666665	-0.2846791242213362	1.8323581868685497	-0.6454060045104645	-0.29833056435668887	1.845999466088857	-0.5812368599658703																-0.26791552110434286	1.8346580179501344	-0.7046029818439055																-0.28075983821326644	1.9776748173986012	-0.6480326008459093	-0.25938647200857123	2.03839295513652	-0.6195052755268623	-0.3009647187338355	1.9747256717887258	-0.5605048343713651	-0.3092805486156723	1.8892840983640946	-0.5425300247759468	-0.3101348901051186	1.8128931661787	-0.5142459519412521	-0.2525144905203352	1.9827771394962632	-0.7449202991206145	-1.1738785443858197	1.8026607051555166	0.13644608343602208	-0.24495647186446404	1.8231375225701174	-0.7679226252010771
66	2.2	-0.28524233032698537	1.8238463121208923	-0.6475100337925581	-0.29834325765053776	1.8456344961118774	-0.5821372019139938																-0.26809236098801875	1.826077242907117	-0.7054692726317745																-0.27971411782526556	1.9700187051560483	-0.651791854129955	-0.2575969025009925	2.028813182210522	-0.6203360429304825	-0.30304687183960655	1.966073218999357	-0.5570676764448815	-0.30838594591847324	1.8767429394078334	-0.5462314057694094	-0.3098523934900696	1.80306115417174	-0.520195018243964	-0.25256511548507704	1.9752423003405843	-0.7438648149340594	-1.1662634282110582	1.7906710959843075	0.1284524827300219	-0.24482612247602586	1.8123936275317958	-0.767486665540861
67	2.2333333333333334	-0.2858055364326345	1.8153344373732347	-0.6496140630746516	-0.2983559509443866	1.8452695261348977	-0.5830375438621173																-0.2682692008716947	1.8174964678641	-0.7063355634196437																-0.27993655164958425	1.961229937786469	-0.6509858084608839	-0.257794313050024	2.019186567263355	-0.6187490321502317	-1.533937776491312	1.864620034472682	0.7349068074948394	-0.30755966097410375	1.8710053217271767	-0.5423431209428786	-0.3105214053223341	1.8074377895415354	-0.5145968867797529	-0.2537386550540606	1.9670738401592254	-0.7460577495697277	-1.1555339769126536	1.78579284049603	0.11564674522924591	-0.2450429213883837	1.8027167385034435	-0.7663627195626713
68	2.2666666666666666	-0.2863687425382837	1.8068225626255772	-0.6517180923567452	-0.29836864423823545	1.8449045561579178	-0.5839378858102409																-0.2684460407553706	1.8089156928210828	-0.7072018542075127																-1.3966947753751324	1.8628433301558533	0.49198440987030345	-0.2608873838162873	2.016475915712652	-0.6193910911433966	-1.5334921823771726	1.8627021594286566	0.733722528121239	-0.30986313317726183	1.8678967396288	-0.5399446190198448	-0.3111904171545985	1.8118144249113308	-0.5089987553155418	-0.25291488832244235	1.9637217588193412	-0.7428888292537408	-0.2499573253231447	1.8813409821577027	-0.767092451936222	-0.24706357292418984	1.7964532870488066	-0.7640193592746156
69	2.3	-0.28513286456051673	1.8164684849265555	-0.6516342292103992	-0.2983813375320843	1.8445395861809382	-0.5848382277583644																-0.2678795735144318	1.817002930871239	-0.7068973784370135																-0.27795762445454764	1.9625504007771901	-0.6534595038976934	-0.2578584590517718	2.0204886539308844	-0.6193250944057777	-1.5281236157461924	1.8665018462674308	0.7217603282179429	-0.3096716972824225	1.872624843210069	-0.5405731789449109	-0.311859428986863	1.8161910602811262	-0.5034006238513309	-0.2537160156920715	1.9670486617592293	-0.7460341262061636	-0.2497692839985693	1.8833149907665896	-0.7672601005079446	-0.24555995389925567	1.8043902259337061	-0.766078850347543
70	2.3333333333333335	-0.28389698658274976	1.826114407227534	-0.6515503660640531	-0.2983940308259332	1.8441746162039585	-0.5857385697064879																-0.26731310627349303	1.8250901689213952	-0.7065929026665144																-0.27987123033040995	1.9723603265685248	-0.6525741952373545	-0.25851322793671644	2.0327130416249233	-0.6241193971583084	-0.3021532137747291	1.9677905486720926	-0.5626962270234322	-0.30811461657114203	1.8820798770928096	-0.5383656906460133	-0.3125284408191274	1.8205676956509216	-0.4978024923871198	-0.25356394857826287	1.9773582709215785	-0.7474163610690681	-0.24958890023504773	1.8931087160699345	-0.7682134546904136	-0.2440563348743215	1.8123271648186057	-0.7681383414204702
71	2.3666666666666667	-0.2826611086049827	1.835760329528512	-0.6514665029177072	-0.29840672411978203	1.8438096462269788	-0.5866389116546115																-0.26674663903255424	1.8331774069715514	-0.7062884268960152																-0.27932512590355657	1.984889964024711	-0.6537907511848586	-0.2609895655522961	2.0503846989156633	-0.627605797653034	-0.3016259705379364	1.9816683643370674	-0.5644697472608619	-0.3118898273394718	1.8955178117325224	-0.5358497602147156	-0.31319745265139187	1.824944331020717	-0.49220436092290876	-0.2530272957408099	1.990469826593685	-0.7484058650798006	-1.1615112740561768	1.8127386788483224	0.11794868371908707	-0.2425527158493873	1.8202641037035052	-0.7701978324933976
72	2.4	-0.28142523062721575	1.8454062518294905	-0.6513826397713612	-0.29841941741363087	1.8434446762499992	-0.587539253602735																-0.26650361871634964	1.8477791423167789	-0.7077351188767647																-0.28115170097523473	2.000030255683019	-0.654022272518728	-0.2614199260915185	2.0693876394830233	-0.6334166169089361	-0.30239360721220804	1.9974009852050314	-0.57008082843892	-0.3137964130441325	1.9115858601552709	-0.5359029192792555	-0.31110101263991896	1.8423567198223032	-0.4875228016853448	-0.2547948454649434	2.006355566378605	-0.7482557683734952	-1.1722333251562214	1.8291521429229973	0.13089980801904763	-0.2397265086173863	1.8406000418336963	-0.7741866473237565
